<svg width="80" height="80" viewBox="0 0 80 80" fill="none" xmlns="http://www.w3.org/2000/svg">
<g id="gridicons:play">
<path id="Vector" d="M40.5 7C33.8743 7 27.3975 8.96474 21.8884 12.6458C16.3794 16.3268 12.0856 21.5588 9.55005 27.6801C7.01452 33.8014 6.3511 40.5372 7.64371 47.0355C8.93631 53.5339 12.1269 59.503 16.8119 64.1881C21.497 68.8731 27.4661 72.0637 33.9645 73.3563C40.4628 74.6489 47.1986 73.9855 53.3199 71.4499C59.4412 68.9144 64.6732 64.6206 68.3542 59.1116C72.0353 53.6025 74 47.1257 74 40.5C74 36.1007 73.1335 31.7445 71.45 27.6801C69.7664 23.6157 67.2988 19.9227 64.1881 16.8119C61.0773 13.7012 57.3843 11.2336 53.3199 9.55003C49.2555 7.8665 44.8993 7 40.5 7ZM33.8 55.575V25.425L53.9 40.5L33.8 55.575Z" fill="white"/>
</g>
</svg>
