<svg width="23" height="29" viewBox="0 0 23 29" fill="none" xmlns="http://www.w3.org/2000/svg">
<g id="evaPinFill2">
<path id="Vector" d="M11 13C12.1046 13 13 12.1046 13 11C13 9.89543 12.1046 9 11 9C9.89543 9 9 9.89543 9 11C9 12.1046 9.89543 13 11 13Z" fill="black"/>
<path id="Vector_2" d="M11.5 1.45212e-08C8.46983 -0.000152815 5.56205 1.20605 3.40866 3.35644C1.25527 5.50683 0.0303017 8.42761 0 11.484C0 19.4299 10.1344 28.2749 10.5656 28.6519C10.826 28.8766 11.1574 29 11.5 29C11.8426 29 12.174 28.8766 12.4344 28.6519C12.9375 28.2749 23 19.4299 23 11.484C22.9697 8.42761 21.7447 5.50683 19.5913 3.35644C17.4379 1.20605 14.5302 -0.000152815 11.5 1.45212e-08ZM11.5 15.9499C10.5049 15.9499 9.53217 15.6523 8.70479 15.0947C7.8774 14.537 7.23253 13.7444 6.85173 12.8171C6.47093 11.8897 6.37129 10.8693 6.56542 9.88488C6.75956 8.90043 7.23874 7.99616 7.94237 7.28641C8.646 6.57666 9.54248 6.09332 10.5185 5.8975C11.4944 5.70168 12.506 5.80218 13.4254 6.18629C14.3447 6.57041 15.1305 7.22088 15.6833 8.05546C16.2362 8.89003 16.5312 9.87123 16.5312 10.875C16.5312 12.2209 16.0012 13.5118 15.0576 14.4635C14.1141 15.4153 12.8344 15.9499 11.5 15.9499Z" fill="black"/>
</g>
</svg>
