<svg width="33" height="41" viewBox="0 0 33 41" fill="none" xmlns="http://www.w3.org/2000/svg">
<g id="evaPinFill2">
<path id="Vector" d="M16 18C17.6569 18 19 16.6569 19 15C19 13.3431 17.6569 12 16 12C14.3431 12 13 13.3431 13 15C13 16.6569 14.3431 18 16 18Z" fill="black"/>
<path id="Vector_2" d="M16.5 2.05299e-08C12.1524 -0.000216048 7.98034 1.7051 4.89069 4.74531C1.80104 7.78551 0.0434763 11.9149 0 16.2359C0 27.4699 14.5406 39.9749 15.1594 40.5079C15.533 40.8255 16.0084 41 16.5 41C16.9916 41 17.467 40.8255 17.8406 40.5079C18.5625 39.9749 33 27.4699 33 16.2359C32.9565 11.9149 31.199 7.78551 28.1093 4.74531C25.0197 1.7051 20.8476 -0.000216048 16.5 2.05299e-08ZM16.5 22.5499C15.0723 22.5499 13.6766 22.1291 12.4895 21.3407C11.3024 20.5523 10.3771 19.4317 9.83074 18.1207C9.28437 16.8096 9.14142 15.367 9.41996 13.9752C9.69849 12.5834 10.386 11.3049 11.3956 10.3015C12.4051 9.29804 13.6914 8.61469 15.0917 8.33784C16.492 8.06099 17.9434 8.20308 19.2625 8.74614C20.5816 9.28919 21.709 10.2088 22.5022 11.3887C23.2954 12.5687 23.7188 13.9559 23.7188 15.3749C23.7188 17.2779 22.9582 19.1029 21.6044 20.4484C20.2506 21.794 18.4145 22.5499 16.5 22.5499Z" fill="black"/>
</g>
</svg>
