<svg width="42" height="42" viewBox="0 0 42 42" fill="none" xmlns="http://www.w3.org/2000/svg">
<g id="ic:baseline-phone">
<path id="Vector" d="M11.4356 18.8489C13.9956 23.88 18.12 27.9867 23.1511 30.5644L27.0622 26.6533C27.5422 26.1733 28.2533 26.0133 28.8756 26.2267C30.8667 26.8844 33.0178 27.24 35.2222 27.24C36.2 27.24 37 28.04 37 29.0178V35.2222C37 36.2 36.2 37 35.2222 37C18.5289 37 5 23.4711 5 6.77778C5 5.8 5.8 5 6.77778 5H13C13.9778 5 14.7778 5.8 14.7778 6.77778C14.7778 9 15.1333 11.1333 15.7911 13.1244C15.9867 13.7467 15.8444 14.44 15.3467 14.9378L11.4356 18.8489Z" fill="black"/>
</g>
</svg>
