<svg width="76" height="76" viewBox="0 0 76 76" fill="none" xmlns="http://www.w3.org/2000/svg">
<g id="gridicons:play">
<path id="Vector" d="M37.5 6C31.2699 6 25.1797 7.84744 19.9995 11.3087C14.8194 14.77 10.782 19.6896 8.39781 25.4455C6.01365 31.2013 5.38984 37.5349 6.60528 43.6453C7.82071 49.7557 10.8208 55.3685 15.2261 59.7738C19.6315 64.1792 25.2443 67.1793 31.3547 68.3947C37.4651 69.6102 43.7987 68.9864 49.5545 66.6022C55.3104 64.218 60.23 60.1806 63.6913 55.0005C67.1526 49.8203 69 43.7301 69 37.5C69 33.3634 68.1852 29.2672 66.6022 25.4455C65.0192 21.6237 62.6989 18.1512 59.7739 15.2261C56.8488 12.3011 53.3763 9.98082 49.5545 8.39779C45.7328 6.81477 41.6366 6 37.5 6ZM31.2 51.675V23.325L50.1 37.5L31.2 51.675Z" fill="white"/>
</g>
</svg>
